<?xml version="1.0" standalone="no"?>
<!DOCTYPE svg PUBLIC "-//W3C//DTD SVG 20010904//EN"
 "http://www.w3.org/TR/2001/REC-SVG-20010904/DTD/svg10.dtd">
<svg version="1.0" xmlns="http://www.w3.org/2000/svg"
 width="640.000000pt" height="640.000000pt" viewBox="0 0 640.000000 640.000000"
 preserveAspectRatio="xMidYMid meet">
<metadata>
Created by potrace 1.14, written by Peter Selinger 2001-2017
</metadata>
<g transform="translate(0.000000,640.000000) scale(0.100000,-0.100000)"
fill="#000000" stroke="none">
<path d="M3408 6356 c-29 -44 -36 -98 -18 -126 7 -11 10 -1 10 36 0 38 6 61
25 88 27 39 29 46 18 46 -5 0 -20 -20 -35 -44z"/>
<path d="M4063 6353 c20 -5 23 -29 5 -37 -7 -4 2 -4 21 -1 18 3 42 5 52 5 31
0 21 27 -12 34 -36 7 -94 6 -66 -1z"/>
<path d="M3535 6292 c-4 -25 -1 -51 8 -73 14 -33 14 -32 9 36 -2 39 -6 71 -7
73 -2 2 -6 -14 -10 -36z"/>
<path d="M3789 6273 c-13 -15 -12 -15 9 -4 23 12 28 21 13 21 -5 0 -15 -7 -22
-17z"/>
<path d="M3752 6243 c-26 -10 -59 -79 -66 -136 -5 -40 -11 -55 -19 -50 -8 4
-7 1 1 -9 10 -13 10 -18 1 -24 -19 -12 18 -23 76 -23 49 1 50 1 19 12 -28 11
-31 15 -22 36 5 14 29 49 54 78 25 29 42 53 37 53 -12 0 -65 -58 -97 -104
l-26 -39 0 49 c0 64 14 111 42 141 22 24 22 25 0 16z"/>
<path d="M3898 6237 c-7 -7 -24 -21 -38 -30 -13 -9 -20 -17 -14 -17 11 0 83
59 72 60 -4 0 -13 -6 -20 -13z"/>
<path d="M3440 6146 c0 -13 138 -141 145 -134 3 2 -29 35 -70 72 -41 37 -75
65 -75 62z"/>
<path d="M3275 6000 c-3 -5 1 -10 10 -10 9 0 13 5 10 10 -3 6 -8 10 -10 10 -2
0 -7 -4 -10 -10z"/>
<path d="M3845 5990 c11 -5 29 -9 40 -9 l20 0 -20 9 c-11 5 -29 9 -40 9 l-20
0 20 -9z"/>
<path d="M3208 5983 c6 -2 18 -2 25 0 6 3 1 5 -13 5 -14 0 -19 -2 -12 -5z"/>
<path d="M3086 5969 c-66 -10 -85 -19 -38 -19 16 0 32 -5 34 -12 3 -8 22 -3
59 15 59 29 50 31 -55 16z"/>
<path d="M3961 5965 c9 -8 79 -35 79 -30 0 2 -16 12 -36 20 -37 15 -51 19 -43
10z"/>
<path d="M2950 5930 c-9 -6 -10 -10 -3 -10 6 0 15 5 18 10 8 12 4 12 -15 0z"/>
<path d="M4060 5920 c8 -5 22 -9 30 -9 10 0 8 3 -5 9 -27 12 -43 12 -25 0z"/>
<path d="M2845 5910 c-19 -8 -19 -9 3 -9 12 -1 22 4 22 9 0 6 -1 10 -2 9 -2 0
-12 -4 -23 -9z"/>
<path d="M2758 5873 c7 -3 16 -2 19 1 4 3 -2 6 -13 5 -11 0 -14 -3 -6 -6z"/>
<path d="M2620 5818 c-120 -62 -179 -99 -255 -157 -60 -46 -195 -178 -195
-191 0 -4 -9 -17 -20 -30 -11 -12 -39 -50 -62 -83 -24 -33 -50 -67 -58 -76 -8
-9 -35 -50 -59 -91 -24 -41 -48 -77 -53 -80 -11 -8 -55 -97 -63 -128 -3 -14
-32 -65 -63 -112 -72 -110 -114 -188 -110 -207 2 -8 23 25 48 73 44 86 94 160
145 217 18 19 24 35 20 48 -5 14 2 34 20 59 26 37 47 74 77 130 7 14 19 31 26
39 8 8 26 32 40 54 49 72 57 83 119 158 33 41 90 102 125 135 70 68 204 174
220 174 6 0 32 13 57 29 26 15 64 34 84 42 36 13 65 35 56 43 -2 2 -47 -19
-99 -46z"/>
<path d="M4225 5840 c29 -32 76 -54 109 -52 15 2 34 -2 40 -7 19 -16 66 -31
66 -22 0 14 -69 51 -96 51 -13 0 -24 4 -24 10 0 5 -7 7 -15 4 -8 -4 -21 -2
-28 3 -6 5 -25 15 -42 22 l-30 13 20 -22z"/>
<path d="M5814 5797 c-15 -7 -24 -27 -33 -69 -6 -32 -21 -66 -32 -76 -26 -25
-16 -47 32 -69 21 -10 39 -20 39 -23 0 -3 -15 -17 -33 -31 -41 -33 -115 -50
-192 -45 -79 5 -75 4 -75 21 0 8 -4 15 -9 15 -15 0 -38 -44 -46 -89 -4 -24
-14 -60 -23 -80 -8 -20 -23 -74 -32 -121 -21 -104 -79 -338 -91 -365 -5 -11
-13 -42 -19 -70 -5 -27 -17 -79 -25 -115 -38 -159 -34 -170 60 -170 48 0 70 5
95 23 35 23 37 28 80 225 5 24 17 64 26 90 14 41 43 191 49 247 1 11 6 29 12
40 14 27 32 124 30 160 -2 26 2 30 26 33 15 2 27 -1 27 -6 0 -5 8 -9 17 -8 12
1 19 -10 25 -39 4 -22 16 -58 27 -80 11 -22 25 -74 31 -115 7 -41 18 -95 25
-120 14 -48 10 -93 -11 -125 -19 -27 -17 -72 6 -140 19 -55 19 -69 10 -209 -6
-83 -13 -302 -16 -485 -3 -184 -7 -339 -10 -343 -3 -4 -13 -8 -23 -8 -23 0
-51 -31 -51 -58 0 -11 -7 -27 -15 -36 -8 -8 -15 -28 -15 -43 0 -19 -11 -40
-29 -59 -32 -33 -63 -81 -87 -136 -9 -21 -22 -38 -28 -38 -7 0 -19 -19 -26
-42 -8 -24 -19 -50 -26 -58 -13 -16 -11 -67 4 -82 13 -13 82 30 82 52 0 11 4
21 9 25 13 8 101 155 101 169 0 12 59 88 72 94 5 2 8 11 9 20 0 12 3 10 10 -6
5 -13 9 -90 10 -171 2 -150 -6 -191 -36 -191 -21 0 -41 -40 -25 -50 7 -5 10
-15 7 -23 -6 -16 18 -31 33 -22 5 3 14 -3 19 -14 13 -24 2 -58 -27 -85 -45
-40 -52 -93 -47 -341 3 -126 6 -351 8 -498 2 -288 2 -286 55 -287 33 0 27 -26
-15 -66 -60 -56 -108 -70 -109 -31 -14 487 -26 727 -36 727 -5 0 -2 7 6 16 9
8 16 19 16 23 0 19 -40 51 -64 51 -19 0 -26 5 -26 20 0 11 -4 20 -10 20 -5 0
-10 -11 -10 -25 0 -14 -3 -25 -7 -25 -5 0 -9 -13 -10 -30 -9 -132 -4 -363 8
-370 7 -5 4 -14 -11 -28 -19 -18 -21 -29 -20 -103 2 -103 -7 -466 -15 -610 -7
-117 0 -179 21 -179 7 0 18 -9 24 -20 6 -11 15 -20 21 -20 6 0 7 4 4 10 -3 5
-1 10 5 10 7 0 8 6 1 19 -6 10 -8 21 -5 24 3 3 6 19 6 36 1 20 9 37 22 47 13
9 27 37 37 77 l15 62 54 -2 c61 -3 113 -18 129 -37 25 -30 49 -190 31 -211 -6
-8 -10 -18 -7 -22 3 -4 -6 -21 -19 -38 -22 -28 -25 -29 -56 -16 -48 20 -114
17 -123 -6 -2 -8 -15 -18 -27 -23 -13 -5 -16 -9 -8 -9 11 -1 21 -29 37 -99 24
-107 25 -152 4 -152 -8 0 -11 -6 -7 -15 9 -24 -49 -19 -76 7 -29 29 -49 73
-42 93 5 11 2 13 -10 9 -9 -3 -16 -2 -16 3 0 8 -159 202 -198 242 -7 7 -11 20
-8 27 3 7 1 16 -4 19 -6 4 -10 11 -10 16 0 6 5 7 12 3 6 -4 8 -3 5 3 -3 5 -8
22 -11 37 -5 28 -59 84 -107 110 -15 9 -47 14 -78 13 -36 -2 -55 2 -58 10 -3
7 -10 13 -15 13 -6 0 -27 14 -47 30 -50 42 -48 41 -122 77 -63 30 -113 70
-134 106 -9 15 -103 47 -141 47 -18 0 -105 40 -121 56 -7 7 -13 23 -13 36 0
37 -11 45 -85 65 l-70 20 -3 49 c-2 27 2 94 8 149 20 168 20 172 11 150 -5
-11 -13 -38 -17 -60 l-9 -40 -65 -7 c-36 -4 -137 -14 -225 -22 -152 -14 -276
-41 -455 -99 -25 -8 -92 -27 -150 -42 -58 -15 -141 -38 -185 -51 -44 -13 -116
-26 -160 -30 -69 -6 -82 -4 -95 11 -13 15 -16 8 -27 -71 -18 -121 -29 -154
-56 -154 -16 0 -18 -3 -9 -12 7 -7 12 -41 12 -84 0 -64 -3 -75 -22 -88 -37
-26 -54 -20 -72 26 -13 30 -15 55 -10 97 7 55 6 56 -13 38 -11 -9 -31 -17 -45
-17 -20 0 -33 -12 -63 -62 -48 -77 -152 -183 -226 -231 -31 -19 -60 -40 -64
-46 -3 -6 -40 -30 -81 -52 -76 -42 -106 -75 -153 -167 -12 -23 -26 -43 -31
-43 -13 -2 -21 -4 -40 -12 -33 -12 -52 -3 -68 35 -22 50 -52 53 -52 4 0 -19 4
-38 10 -41 5 -3 10 -14 10 -24 0 -10 11 -23 24 -31 25 -13 51 -61 49 -90 -1
-9 -14 -43 -29 -75 -15 -33 -29 -69 -31 -79 -2 -10 -12 -38 -22 -60 -10 -23
-21 -64 -25 -92 -4 -27 -17 -92 -31 -144 -29 -116 -65 -297 -65 -327 l0 -23
275 0 c220 0 277 3 281 13 3 8 15 58 28 113 13 54 38 151 56 214 17 63 37 140
44 170 8 30 23 84 35 120 11 36 35 112 52 170 66 219 141 420 157 420 4 0 13
15 20 32 32 79 43 99 57 105 9 3 18 3 21 1 8 -8 -51 -113 -62 -111 -6 1 -11
-16 -12 -38 -1 -22 -8 -52 -16 -68 -45 -87 -176 -456 -210 -591 -9 -36 -28
-105 -42 -155 -27 -94 -81 -307 -91 -363 l-6 -32 2007 0 2006 0 0 955 c0 923
-1 955 -19 955 -10 0 -30 -11 -45 -25 -25 -23 -39 -29 -60 -26 -4 1 -15 -4
-22 -10 -12 -10 -20 -7 -42 12 -15 13 -29 27 -32 30 -3 3 -17 9 -32 13 -39 9
-51 -20 -52 -127 -1 -96 8 -113 51 -96 37 14 90 11 107 -7 9 -8 16 -17 16 -19
0 -2 -25 -28 -55 -59 -45 -45 -55 -61 -55 -89 0 -31 4 -36 43 -51 76 -32 92
-41 95 -60 6 -27 -18 -37 -49 -20 -16 8 -38 14 -51 14 -39 0 -68 12 -68 26 0
15 -9 18 -25 6 -26 -18 -35 -97 -36 -309 0 -120 4 -229 9 -243 6 -15 6 -37 0
-55 -5 -16 -8 -82 -7 -145 1 -63 1 -121 0 -127 -3 -34 -131 2 -149 41 -5 12
-8 45 -6 72 2 27 3 72 3 99 0 28 -1 259 -2 515 -2 256 1 497 6 535 4 39 11
202 13 364 3 161 9 324 13 362 5 38 5 85 0 107 -4 21 -8 499 -7 1063 1 977 2
1026 19 1057 23 41 23 50 3 73 -20 22 -31 137 -16 166 8 15 7 45 -5 114 -10
52 -17 130 -17 174 -1 44 -5 90 -9 103 -6 16 -4 28 6 40 18 20 32 85 23 108
-5 13 -9 14 -20 5 -9 -8 -17 -8 -20 -2 -3 5 -1 11 6 13 16 6 16 133 1 173 -6
17 -14 42 -17 58 -5 22 -12 27 -34 26 -15 -1 -36 -6 -48 -12z m-1567 -3948 c4
-21 14 -34 32 -41 45 -17 111 -52 111 -59 0 -3 -55 -16 -122 -29 -178 -33
-362 -78 -416 -102 -26 -11 -74 -33 -107 -49 -33 -16 -67 -29 -77 -29 -16 0
-158 -58 -200 -82 -13 -7 -61 -18 -108 -24 -47 -6 -130 -18 -185 -27 -55 -8
-135 -18 -177 -21 -69 -5 -78 -4 -79 12 0 10 -3 12 -6 5 -2 -7 -18 -13 -35
-13 -25 0 -29 3 -22 18 5 9 8 53 7 96 -3 69 0 81 17 93 11 8 20 23 20 34 0 10
4 19 9 19 5 0 7 -20 6 -45 -3 -43 -2 -45 18 -39 12 3 45 13 72 21 28 8 84 28
125 43 199 76 301 109 525 171 122 34 398 75 528 78 57 1 58 1 64 -30z m2118
-189 c4 -6 -5 -10 -20 -10 -15 0 -24 4 -20 10 3 6 12 10 20 10 8 0 17 -4 20
-10z m-551 -796 c10 -27 7 -69 -7 -89 -13 -17 -15 -17 -35 3 -12 12 -17 22
-12 22 6 0 10 7 10 15 0 19 21 65 31 65 4 0 10 -7 13 -16z m103 -96 c-3 -7 -5
-2 -5 12 0 14 2 19 5 13 2 -7 2 -19 0 -25z"/>
<path d="M2650 5563 c-11 -27 -24 -55 -29 -64 -5 -9 -18 -47 -28 -85 -20 -77
-26 -355 -8 -373 7 -7 10 46 11 157 0 176 6 210 57 345 30 76 27 92 -3 20z"/>
<path d="M4280 5557 c0 -3 14 -19 30 -37 33 -35 50 -39 22 -5 -20 24 -52 50
-52 42z"/>
<path d="M4751 5515 c28 -41 59 -76 59 -67 0 5 -16 27 -36 48 -20 22 -31 30
-23 19z"/>
<path d="M4830 5412 c0 -5 7 -15 15 -22 8 -7 15 -8 15 -2 0 5 -7 15 -15 22 -8
7 -15 8 -15 2z"/>
<path d="M4870 5351 c0 -5 5 -13 10 -16 6 -3 10 -2 10 4 0 5 -4 13 -10 16 -5
3 -10 2 -10 -4z"/>
<path d="M3632 5290 c0 -14 2 -19 5 -12 2 6 2 18 0 25 -3 6 -5 1 -5 -13z"/>
<path d="M2981 5200 c-1 -43 25 -151 41 -165 8 -7 9 -5 5 6 -7 22 -35 138 -40
169 -3 18 -5 16 -6 -10z"/>
<path d="M2030 5149 c0 -5 5 -7 10 -4 6 3 10 8 10 11 0 2 -4 4 -10 4 -5 0 -10
-5 -10 -11z"/>
<path d="M1974 5088 l-29 -33 33 29 c30 28 37 36 29 36 -2 0 -16 -15 -33 -32z"/>
<path d="M3681 5110 c0 -8 6 -24 14 -34 19 -25 19 -9 0 24 -8 14 -14 19 -14
10z"/>
<path d="M1926 5034 c-9 -8 -16 -20 -16 -26 0 -6 1 -9 3 -7 1 2 11 14 21 27
22 25 16 30 -8 6z"/>
<path d="M3036 4990 c3 -14 10 -29 15 -34 14 -16 10 6 -7 34 l-15 25 7 -25z"/>
<path d="M3756 4927 c3 -10 9 -15 12 -12 3 3 0 11 -7 18 -10 9 -11 8 -5 -6z"/>
<path d="M4600 4915 c0 -5 9 -23 20 -40 11 -16 20 -23 20 -15 0 17 -39 71 -40
55z"/>
<path d="M2463 4875 c-13 -19 -23 -39 -23 -44 0 -4 -8 -19 -18 -32 -30 -39
-152 -283 -152 -305 0 -17 29 34 105 186 94 186 97 191 106 159 5 -17 7 -11 8
24 1 26 0 47 -1 47 -2 0 -13 -16 -25 -35z"/>
<path d="M5112 4849 c3 -8 20 -76 38 -152 18 -75 35 -135 38 -133 7 8 -19 144
-39 199 -10 28 -19 59 -19 69 0 9 -5 20 -12 24 -7 5 -9 2 -6 -7z"/>
<path d="M3790 4835 c0 -12 42 -87 46 -83 5 5 -34 88 -41 88 -3 0 -5 -2 -5 -5z"/>
<path d="M6047 4813 c-13 -12 -7 -35 17 -64 l24 -29 7 40 c4 22 4 44 0 50 -7
11 -38 14 -48 3z"/>
<path d="M2483 4750 c0 -30 2 -43 4 -27 2 15 2 39 0 55 -2 15 -4 2 -4 -28z"/>
<path d="M3136 4703 c13 -43 24 -90 24 -105 0 -18 5 -28 15 -28 8 0 15 -6 15
-12 0 -12 24 -49 104 -168 13 -19 33 -44 45 -54 32 -29 26 -43 -23 -50 -24 -4
-52 -13 -62 -21 -26 -19 -42 -19 -47 3 -4 14 -5 14 -6 -3 -1 -11 5 -40 13 -65
8 -25 25 -81 37 -125 22 -79 48 -141 49 -118 0 6 -5 24 -10 39 -7 19 -7 30 1
40 9 11 8 14 -3 14 -15 0 -31 41 -43 113 -8 43 -18 40 124 38 52 -1 104 -7
116 -14 24 -13 70 -65 99 -111 l18 -29 -31 6 c-19 4 -30 3 -26 -3 3 -5 21 -12
40 -16 19 -3 48 -20 65 -37 24 -24 30 -27 30 -13 0 13 6 16 23 12 22 -6 22 -6
1 5 -24 12 -50 61 -59 113 -4 20 -12 36 -17 36 -5 0 -6 -10 -2 -22 16 -51 21
-88 13 -88 -5 0 -13 8 -16 17 -4 10 -17 27 -29 38 -27 25 -105 138 -139 202
-14 26 -37 66 -50 88 -35 57 -54 101 -72 170 -20 78 -27 84 -20 15 6 -55 38
-145 69 -192 9 -14 24 -42 32 -64 l16 -39 -37 41 c-47 51 -64 75 -137 184 -39
60 -96 172 -96 191 0 8 -4 19 -9 25 -5 5 -11 20 -13 33 -1 14 -8 26 -15 28 -7
3 -2 -26 13 -74z"/>
<path d="M2660 4722 c0 -13 12 -53 26 -89 20 -51 26 -82 26 -141 -1 -80 2 -83
13 -19 3 20 10 37 15 37 5 0 22 -24 36 -52 15 -29 29 -48 31 -41 4 12 -50 125
-73 153 -7 8 -17 35 -24 59 -6 24 -20 60 -31 80 -16 31 -19 32 -19 13z"/>
<path d="M3840 4723 c0 -5 7 -18 15 -29 13 -18 14 -18 8 4 -5 22 -23 41 -23
25z"/>
<path d="M3303 4685 c0 -22 2 -30 4 -17 2 12 2 30 0 40 -3 9 -5 -1 -4 -23z"/>
<path d="M3650 4666 c0 -2 8 -10 18 -17 15 -13 16 -12 3 4 -13 16 -21 21 -21
13z"/>
<path d="M3870 4656 c0 -8 4 -17 9 -20 5 -4 7 3 4 14 -6 23 -13 26 -13 6z"/>
<path d="M1646 4567 c-9 -30 -15 -68 -15 -84 2 -26 2 -26 6 -3 2 14 11 49 20
78 9 29 13 55 10 58 -3 3 -12 -19 -21 -49z"/>
<path d="M2190 4574 c-20 -45 -27 -84 -13 -70 9 8 42 116 37 116 -3 0 -14 -21
-24 -46z"/>
<path d="M3700 4613 c0 -13 122 -128 152 -144 23 -11 23 -11 3 8 -94 91 -155
144 -155 136z"/>
<path d="M2493 4568 c3 -9 9 -34 13 -55 4 -21 15 -57 26 -81 10 -24 18 -48 18
-53 0 -13 -30 -11 -101 7 -67 17 -125 13 -173 -11 -16 -9 -31 -13 -34 -10 -3
2 3 24 12 48 24 64 19 79 -9 22 -26 -53 -68 -172 -85 -242 -6 -24 -13 -43 -16
-43 -5 0 0 77 11 165 13 107 15 169 4 145 -37 -88 -55 -462 -26 -570 l14 -55
-5 75 c-5 83 20 230 62 360 l24 75 74 0 c73 0 184 -21 194 -37 3 -4 16 -8 29
-8 39 0 55 -11 76 -52 17 -33 51 -81 120 -165 21 -27 25 -10 13 54 -8 43 -9
72 -3 79 6 7 4 21 -5 38 -20 40 -30 15 -22 -55 4 -32 3 -59 -1 -59 -20 0 -148
253 -179 354 -13 44 -27 82 -31 85 -3 3 -3 -2 0 -11z m-3 -213 c42 -8 90 -37
72 -43 -7 -2 -20 -1 -30 4 -9 4 -21 8 -27 9 -5 0 -17 4 -25 8 -8 4 -42 14 -75
22 l-60 15 55 -4 c30 -3 71 -7 90 -11z"/>
<path d="M1800 4549 c0 -5 5 -7 10 -4 6 3 10 8 10 11 0 2 -4 4 -10 4 -5 0 -10
-5 -10 -11z"/>
<path d="M4117 4509 c9 -50 41 -137 42 -116 1 17 -36 137 -45 146 -2 3 -1 -11
3 -30z"/>
<path d="M5192 4530 c-1 -8 5 -42 12 -75 8 -33 14 -49 14 -35 0 28 -25 133
-26 110z"/>
<path d="M275 4496 c-17 -12 -18 -19 -7 -77 7 -41 12 -199 13 -434 0 -203 4
-388 8 -410 l6 -40 103 -3 c116 -3 142 5 142 47 0 36 -55 293 -75 349 -8 24
-17 58 -20 77 -2 19 -11 47 -19 64 -9 16 -16 39 -16 50 0 11 -6 38 -14 58 -8
21 -19 65 -26 98 -7 33 -18 78 -25 100 -7 22 -19 59 -26 83 -15 51 -20 56 -44
38z"/>
<path d="M444 4410 c3 -82 30 -170 52 -170 8 0 14 2 14 5 0 12 -39 146 -46
157 -4 7 -11 28 -15 48 -5 24 -7 11 -5 -40z"/>
<path d="M1757 4448 c-26 -63 -27 -84 -2 -29 14 29 24 56 21 58 -3 3 -11 -10
-19 -29z"/>
<path d="M3590 4441 c0 -11 7 -24 14 -28 13 -7 76 -114 76 -128 0 -3 -16 -3
-35 1 -39 7 -39 6 -29 -58 6 -36 7 -37 27 -23 35 24 72 19 101 -16 16 -19 26
-25 26 -15 0 8 -4 17 -9 20 -12 8 -135 216 -141 240 -8 27 -30 32 -30 7z m67
-197 c-3 -3 -12 -4 -19 -1 -8 3 -5 6 6 6 11 1 17 -2 13 -5z"/>
<path d="M1952 4418 c-29 -95 -37 -152 -36 -273 1 -114 19 -261 41 -323 13
-38 -95 82 -125 139 -38 71 -39 85 -11 149 31 72 19 99 -13 30 -54 -113 -78
-204 -78 -289 0 -115 -22 -117 -60 -7 -22 64 -26 181 -10 266 6 30 25 97 42
148 16 51 28 96 25 99 -8 8 -38 -66 -44 -110 -3 -21 -10 -40 -14 -43 -5 -3 -9
-16 -9 -30 0 -13 -3 -24 -7 -24 -5 0 -9 28 -11 62 -2 34 -8 69 -13 77 -7 11
-8 -15 -3 -84 7 -109 7 -175 -2 -246 -6 -46 -6 -46 -51 -53 -25 -3 -63 -6 -84
-6 -43 0 -56 -12 -34 -30 8 -7 15 -18 15 -24 0 -22 46 -39 117 -44 68 -4 74
-7 92 -36 11 -17 28 -42 38 -55 13 -19 18 -46 20 -105 5 -243 12 -453 18 -544
4 -62 2 -157 -6 -240 -11 -131 -11 -141 9 -198 18 -54 20 -70 11 -171 -6 -78
-5 -121 2 -140 l11 -28 9 25 c6 13 9 94 7 180 -2 115 0 161 10 172 8 11 12 55
11 149 -1 208 -2 461 -1 494 2 65 2 161 2 180 -3 55 10 310 17 329 4 11 5 32
4 46 l-3 25 34 -31 c18 -17 58 -50 90 -73 31 -23 59 -49 62 -57 3 -7 10 -14
16 -14 7 0 5 11 -4 28 -9 15 -20 39 -26 55 -5 15 -15 27 -23 27 -39 0 -62 362
-33 529 17 96 16 128 -2 69z"/>
<path d="M3890 4446 c0 -3 9 -10 20 -16 11 -6 20 -8 20 -6 0 3 -9 10 -20 16
-11 6 -20 8 -20 6z"/>
<path d="M3171 4424 c0 -11 3 -14 6 -6 3 7 2 16 -1 19 -3 4 -6 -2 -5 -13z"/>
<path d="M2821 4395 c0 -5 6 -21 14 -35 8 -14 14 -41 15 -61 0 -20 3 -52 7
-70 8 -34 8 -33 13 15 l5 49 33 -47 c31 -43 52 -58 52 -36 0 11 -68 110 -110
160 -16 19 -29 31 -29 25z"/>
<path d="M4080 4330 c6 -11 13 -20 16 -20 2 0 0 9 -6 20 -6 11 -13 20 -16 20
-2 0 0 -9 6 -20z"/>
<path d="M4840 4332 c6 -13 14 -21 18 -18 3 4 -2 14 -12 24 -18 16 -18 16 -6
-6z"/>
<path d="M4600 4258 c0 -87 5 -86 15 5 4 45 3 67 -4 67 -7 0 -11 -27 -11 -72z"/>
<path d="M2701 4304 c0 -11 3 -14 6 -6 3 7 2 16 -1 19 -3 4 -6 -2 -5 -13z"/>
<path d="M4177 4238 c3 -38 3 -68 0 -68 -3 0 -15 20 -27 46 -12 25 -24 43 -27
40 -3 -3 2 -20 12 -38 45 -90 73 -215 77 -340 2 -43 7 -78 12 -78 18 0 -10
302 -43 460 -9 40 -9 37 -4 -22z"/>
<path d="M4880 4283 c0 -6 8 -17 18 -24 16 -13 16 -13 2 6 -8 11 -16 22 -17
24 -2 2 -3 0 -3 -6z"/>
<path d="M4710 4272 c0 -15 65 -82 80 -82 15 0 14 2 -35 50 -25 24 -45 39 -45
32z"/>
<path d="M6218 4243 c7 -3 16 -2 19 1 4 3 -2 6 -13 5 -11 0 -14 -3 -6 -6z"/>
<path d="M4932 4218 c8 -12 21 -24 28 -26 8 -3 6 5 -6 21 -23 32 -42 36 -22 5z"/>
<path d="M6180 4227 c0 -7 -14 -18 -30 -24 -32 -12 -60 -62 -60 -108 0 -14 -4
-25 -10 -25 -5 0 -10 -11 -10 -25 0 -46 52 -28 82 28 6 12 21 30 34 39 12 10
25 32 29 48 4 16 11 32 16 35 18 12 9 33 -11 28 -11 -3 -20 0 -20 6 0 6 -4 11
-10 11 -5 0 -10 -6 -10 -13z"/>
<path d="M501 4148 c-1 -29 3 -38 15 -38 10 0 14 -6 10 -15 -3 -8 -1 -15 4
-15 6 0 10 11 10 25 0 14 -4 25 -8 25 -5 0 -13 12 -19 28 -11 27 -11 27 -12
-10z"/>
<path d="M4825 4170 c3 -5 11 -10 16 -10 6 0 7 5 4 10 -3 6 -11 10 -16 10 -6
0 -7 -4 -4 -10z"/>
<path d="M5015 4156 c17 -14 37 -26 45 -26 13 0 13 1 0 11 -8 5 -28 17 -45 25
l-30 15 30 -25z"/>
<path d="M2865 4118 c8 -57 33 -126 59 -163 35 -50 69 -85 83 -85 11 0 11 4 0
28 -14 26 -31 142 -21 142 2 0 43 -38 90 -85 47 -47 90 -85 95 -85 5 0 34 -17
64 -37 50 -34 61 -49 55 -78 -1 -5 7 -2 17 7 10 9 31 20 46 24 29 7 30 13 12
57 -6 15 0 17 71 17 44 0 84 -4 89 -8 16 -11 13 -288 -2 -285 -7 2 -13 -1 -13
-6 0 -10 82 -21 156 -21 l50 0 22 89 c12 48 22 109 22 135 0 51 4 53 57 31
l36 -15 -6 -51 c-7 -57 -52 -136 -95 -169 l-27 -19 38 -1 c32 0 46 7 83 44 24
25 44 48 44 52 0 4 -9 -2 -21 -15 -28 -30 -36 -19 -12 16 11 15 27 49 37 75
10 28 25 50 37 53 35 11 15 29 -67 58 -146 53 -296 86 -421 93 -65 4 -124 11
-130 17 -21 16 -15 -19 12 -73 29 -57 30 -60 11 -60 -18 0 -128 57 -141 73 -5
7 -28 25 -50 42 -47 35 -120 107 -142 141 -25 40 -33 28 -33 -52 l0 -76 -23
29 c-30 36 -67 127 -67 164 0 15 -5 31 -10 34 -7 4 -8 -8 -5 -37z"/>
<path d="M2358 4143 c17 -2 47 -2 65 0 17 2 3 4 -33 4 -36 0 -50 -2 -32 -4z"/>
<path d="M3790 4131 c0 -10 45 -62 125 -146 77 -80 195 -162 247 -172 44 -8
37 -2 -52 42 -61 31 -98 61 -197 161 -68 67 -123 119 -123 115z"/>
<path d="M4931 4129 c13 -8 97 -13 88 -5 -2 2 -26 6 -53 9 -30 3 -43 1 -35 -4z"/>
<path d="M5257 3983 c-6 -164 -24 -272 -57 -345 l-20 -43 0 76 c0 73 -22 170
-56 247 -8 18 -14 39 -14 47 0 8 -4 15 -9 15 -12 0 -18 -46 -20 -150 -4 -150
-60 -314 -155 -454 -47 -70 -219 -226 -286 -261 -25 -13 -24 -9 27 93 54 108
90 232 74 260 -5 9 -14 -19 -25 -78 -18 -97 -47 -165 -116 -269 -23 -34 -40
-64 -38 -67 3 -2 20 1 39 6 50 15 64 13 49 -4 -6 -8 -13 -31 -14 -51 -3 -31 0
-38 23 -46 14 -6 57 -10 96 -10 99 0 138 -3 153 -12 21 -14 3 -27 -36 -26 -60
1 -277 -8 -277 -11 0 -1 -13 -4 -28 -6 -28 -3 -127 -60 -127 -73 0 -7 -11 -20
-96 -121 -53 -64 -64 -87 -64 -138 1 -58 34 -88 108 -97 92 -11 115 -2 130 47
8 24 32 60 55 84 23 23 55 60 70 83 16 23 36 41 46 41 10 0 21 3 24 6 12 12
201 3 217 -10 8 -7 22 -16 31 -19 12 -4 18 -25 24 -84 4 -43 11 -83 16 -89 13
-16 17 -80 28 -429 9 -306 16 -360 52 -396 28 -28 42 -24 103 34 l56 53 1 144
c4 598 14 944 27 965 4 5 7 28 8 50 8 315 17 518 25 554 5 24 25 72 43 105 20
37 36 81 39 113 3 29 14 61 24 72 24 26 39 45 40 51 1 3 5 13 9 23 10 28 -2
197 -15 210 -7 7 -43 12 -87 12 -59 0 -74 3 -74 15 0 8 -4 21 -9 28 -5 8 -11
-53 -14 -145z m-652 -1143 c9 -15 -7 -40 -25 -40 -24 0 -33 15 -25 39 6 19 39
19 50 1z m285 -25 c-10 -13 -9 -15 6 -16 11 -1 -12 -5 -51 -9 -38 -4 -71 -3
-73 1 -2 5 -15 9 -28 9 -18 0 -24 5 -24 21 0 21 4 21 63 16 34 -3 71 -2 82 3
26 10 42 -5 25 -25z"/>
<path d="M2508 4123 c7 -3 16 -2 19 1 4 3 -2 6 -13 5 -11 0 -14 -3 -6 -6z"/>
<path d="M4581 4108 c-1 -16 -27 -81 -53 -131 -55 -109 -75 -141 -113 -181
-11 -12 -40 -43 -64 -70 -31 -34 -46 -45 -51 -36 -6 9 -17 -5 -35 -41 -15 -30
-31 -56 -35 -59 -3 -3 -9 -13 -13 -22 -3 -10 -13 -18 -21 -18 -13 0 -32 -47
-23 -57 3 -2 24 25 48 62 26 41 47 64 56 61 7 -3 13 0 13 7 0 7 16 29 36 48
43 41 164 193 164 206 0 5 10 19 21 32 24 26 81 178 75 201 -3 11 -4 11 -5 -2z"/>
<path d="M4711 4083 c-13 -35 -70 -138 -98 -173 -6 -8 -33 -42 -59 -75 -26
-33 -52 -66 -58 -74 -9 -12 -8 -12 10 -3 11 6 26 18 34 26 8 10 29 16 56 16
47 0 83 -27 110 -85 l15 -30 -6 35 c-8 42 -53 85 -102 97 l-34 8 66 99 c69
105 79 119 71 96 -12 -30 -23 -109 -16 -105 13 8 40 96 47 152 4 42 3 53 -9
53 -8 0 -20 -17 -27 -37z"/>
<path d="M4767 4094 c-3 -3 -4 -11 -1 -17 2 -7 13 -52 23 -102 18 -81 20 -85
20 -43 1 40 -22 154 -32 165 -2 1 -6 0 -10 -3z"/>
<path d="M3383 4073 c15 -2 39 -2 55 0 15 2 2 4 -28 4 -30 0 -43 -2 -27 -4z"/>
<path d="M537 4035 c3 -22 10 -49 15 -60 5 -13 6 -4 2 25 -3 25 -10 52 -15 60
-5 9 -6 -1 -2 -25z"/>
<path d="M2260 3997 c-73 -9 -77 -11 -62 -30 6 -7 16 -44 22 -82 6 -38 20 -89
31 -114 24 -55 24 -73 -1 -42 -11 13 -20 18 -20 12 0 -7 12 -23 26 -36 27 -25
44 -32 44 -17 0 4 21 6 48 5 l47 -2 -49 9 c-27 5 -53 13 -58 18 -13 13 -37
120 -37 167 -1 62 7 68 97 73 l79 4 7 -98 c8 -104 23 -174 41 -186 5 -4 34 -8
62 -8 47 0 54 3 67 28 7 15 19 60 27 100 12 68 13 72 25 50 13 -22 13 -21 15
20 1 23 2 47 3 54 4 47 -261 95 -414 75z"/>
<path d="M4817 3795 c6 -82 17 -113 29 -80 4 9 0 38 -9 64 -9 25 -18 57 -20
71 -3 14 -3 -11 0 -55z"/>
<path d="M2200 3808 c0 -9 5 -20 10 -23 13 -8 13 5 0 25 -8 13 -10 13 -10 -2z"/>
<path d="M2171 3757 c-1 -9 8 -34 19 -54 25 -48 26 -21 1 32 -11 22 -20 32
-20 22z"/>
<path d="M4466 3733 c-4 -4 -15 -25 -25 -48 -15 -33 -99 -150 -128 -177 -38
-36 -73 -58 -73 -46 0 8 4 18 8 24 12 13 34 95 28 101 -3 3 -9 -5 -14 -18 -5
-13 -19 -50 -31 -83 l-22 -58 27 6 c14 4 34 14 42 23 20 19 28 3 13 -26 -18
-33 -12 -35 15 -6 24 27 29 28 95 22 68 -6 69 -5 90 25 12 16 24 49 27 73 l4
44 -48 3 c-27 2 -48 8 -47 13 3 19 63 29 107 18 l41 -11 -24 19 c-14 11 -39
19 -62 19 -37 0 -48 8 -31 24 4 4 7 11 8 14 0 4 4 15 9 25 8 19 3 32 -9 20z
m28 -180 c7 -17 -11 -82 -22 -84 -23 -2 -142 -3 -142 -1 0 6 35 59 54 80 25
28 100 32 110 5z"/>
<path d="M4555 3709 c-15 -6 -11 -8 18 -8 20 -1 37 1 37 3 0 9 -37 12 -55 5z"/>
<path d="M4485 3689 c-11 -17 -2 -18 25 -4 24 14 24 14 3 15 -12 0 -25 -5 -28
-11z"/>
<path d="M2098 3644 c39 -47 42 -55 42 -109 0 -201 46 -603 72 -630 10 -11 3
47 -12 100 -33 110 -51 573 -22 568 6 -2 12 2 12 7 0 6 -6 10 -13 10 -7 0 -23
13 -35 29 -11 16 -36 40 -54 52 -32 23 -32 22 10 -27z"/>
<path d="M4722 3665 c-1 -11 3 -38 7 -60 l9 -40 0 35 c0 19 -4 46 -8 60 -6 20
-8 21 -8 5z"/>
<path d="M6379 3643 c-21 -39 -15 -1281 7 -1303 12 -12 14 76 14 658 0 370 -1
672 -3 672 -2 0 -10 -12 -18 -27z"/>
<path d="M2220 3630 c0 -8 5 -22 10 -30 9 -13 10 -13 10 0 0 8 -5 22 -10 30
-9 13 -10 13 -10 0z"/>
<path d="M6092 3610 c-17 -28 -15 -40 8 -40 13 0 18 5 14 15 -4 8 -1 15 5 15
6 0 11 7 11 15 0 21 -23 19 -38 -5z"/>
<path d="M4617 3538 c6 -73 11 -83 12 -23 0 28 -3 56 -8 63 -5 8 -6 -8 -4 -40z"/>
<path d="M3460 3570 c8 -5 22 -9 30 -9 10 0 8 3 -5 9 -27 12 -43 12 -25 0z"/>
<path d="M4536 3535 c8 -37 14 -45 14 -19 0 10 -5 26 -10 34 -8 11 -9 7 -4
-15z"/>
<path d="M0 3460 c0 -32 5 -62 10 -65 6 -4 24 -33 40 -66 26 -50 28 -62 18
-79 -14 -22 -53 -27 -61 -7 -3 6 -6 -20 -6 -60 -1 -39 4 -75 9 -78 6 -3 10
-13 10 -21 0 -8 10 -36 21 -62 26 -56 21 -133 -14 -202 -20 -40 -22 -59 -21
-160 2 -90 6 -125 22 -160 22 -50 66 -97 76 -81 4 5 6 187 6 403 -1 216 -1
433 0 481 1 98 -4 113 -71 178 l-39 38 0 -59z"/>
<path d="M4527 3473 c-4 -3 -7 -11 -7 -17 0 -6 5 -5 12 2 6 6 9 14 7 17 -3 3
-9 2 -12 -2z"/>
<path d="M6204 3393 c-37 -7 -46 -92 -50 -492 -3 -299 -7 -369 -19 -387 -13
-20 -13 -28 2 -71 10 -29 18 -100 22 -176 5 -113 8 -130 26 -143 12 -9 30 -12
47 -8 52 11 84 -3 101 -47 12 -31 20 -39 41 -39 l26 0 0 95 0 95 -40 -20 c-35
-18 -40 -24 -35 -48 5 -24 4 -25 -4 -5 -6 12 -12 39 -15 60 -3 21 -9 52 -14
69 -5 17 -10 159 -11 315 -2 398 -9 711 -16 734 -17 51 -28 75 -34 74 -3 -1
-16 -4 -27 -6z"/>
<path d="M4268 3320 c2 -27 8 -47 13 -44 10 6 12 54 3 78 -12 31 -19 15 -16
-34z"/>
<path d="M4340 3320 c0 -42 -24 -96 -49 -112 -15 -9 -21 -23 -21 -49 0 -36
-20 -57 -41 -43 -15 9 -10 32 17 85 29 57 27 78 -3 27 -37 -64 -47 -97 -33
-113 27 -33 70 -10 70 37 0 15 8 35 19 45 38 37 72 135 52 148 -7 4 -11 -6
-11 -25z"/>
<path d="M4574 3315 c-3 -8 -4 -20 -2 -27 3 -7 7 -1 10 15 6 29 1 36 -8 12z"/>
<path d="M2820 3149 c0 -5 5 -7 10 -4 6 3 10 8 10 11 0 2 -4 4 -10 4 -5 0 -10
-5 -10 -11z"/>
<path d="M4160 2881 c0 -6 14 -11 30 -11 17 0 30 -5 30 -10 0 -6 -13 -29 -30
-52 -16 -22 -30 -45 -30 -49 0 -13 -63 -99 -72 -99 -4 0 -8 14 -8 30 0 42 -20
37 -52 -13 l-28 -42 0 30 c0 17 11 48 23 70 24 42 39 75 33 75 -2 0 -20 -26
-41 -57 -21 -32 -59 -77 -84 -101 -86 -84 -307 -214 -426 -252 -22 -7 -44 -16
-50 -20 -12 -9 -189 -69 -310 -105 -49 -15 -94 -29 -100 -30 -5 -2 7 -4 27 -4
20 -1 39 -7 41 -13 4 -9 6 -8 6 3 1 11 28 24 89 43 280 88 299 96 502 207 118
64 218 137 248 181 17 24 36 13 22 -13 -17 -31 -32 -188 -24 -249 l7 -55 13
90 c18 127 28 164 53 213 32 62 48 53 41 -25 -2 -32 17 -29 34 5 21 40 54 75
64 68 5 -3 10 -80 10 -172 0 -91 3 -168 6 -171 3 -3 13 0 22 8 13 11 15 35 13
163 -2 83 -6 163 -10 178 -5 18 -4 25 4 22 7 -2 12 7 13 23 2 36 13 86 22 95
4 4 21 14 37 22 l30 16 -62 0 c-34 0 -68 3 -77 6 -9 3 -16 1 -16 -5z"/>
<path d="M303 2852 c-16 -34 -14 -154 2 -207 13 -43 9 -112 -8 -133 -16 -20
-28 -221 -16 -260 11 -33 19 -229 10 -238 -7 -7 -1 -80 10 -132 12 -54 3 -92
-21 -92 -11 0 -22 5 -25 10 -4 6 -11 8 -16 5 -5 -4 -9 -1 -9 4 0 14 -79 66
-87 57 -4 -4 -9 -28 -11 -55 l-3 -48 43 -6 c23 -3 48 -1 54 4 7 6 16 4 24 -6
7 -9 21 -13 30 -10 10 3 25 -2 34 -10 15 -15 17 -15 22 -1 3 9 12 16 19 16 29
0 47 52 51 144 13 330 27 363 126 307 27 -14 48 -29 48 -33 0 -13 463 -468
476 -468 7 0 15 -9 19 -19 3 -11 18 -27 32 -36 14 -10 41 -34 60 -54 87 -92
148 -153 164 -162 18 -9 49 -3 49 10 0 12 -89 124 -111 139 -10 7 -19 18 -19
24 0 6 -28 43 -62 82 -35 39 -69 77 -76 86 -7 8 -47 52 -90 98 -42 46 -82 96
-88 111 -6 15 -22 36 -35 47 -13 10 -32 31 -41 45 -9 14 -29 39 -45 55 -90 90
-333 384 -334 403 0 9 -3 25 -6 36 -3 11 -6 40 -7 65 -3 71 -4 73 -43 122 -21
26 -51 65 -67 87 -17 23 -32 41 -35 41 -4 0 -12 -12 -18 -28z"/>
<path d="M2221 2869 c-1 -8 6 -24 15 -35 15 -19 15 -19 6 1 -5 11 -12 27 -15
35 -5 13 -6 13 -6 -1z"/>
<path d="M4074 2855 c-23 -36 -14 -38 14 -4 13 16 19 29 13 29 -6 0 -18 -11
-27 -25z"/>
<path d="M2755 2830 c-3 -5 3 -10 15 -10 12 0 18 5 15 10 -3 6 -10 10 -15 10
-5 0 -12 -4 -15 -10z"/>
<path d="M5580 2765 c-23 -12 -23 -14 -7 -21 20 -7 42 8 36 24 -3 7 -13 6 -29
-3z"/>
<path d="M2280 2750 c0 -5 5 -10 11 -10 5 0 7 5 4 10 -3 6 -8 10 -11 10 -2 0
-4 -4 -4 -10z"/>
<path d="M2300 2726 c0 -2 7 -9 15 -16 13 -11 14 -10 9 4 -5 14 -24 23 -24 12z"/>
<path d="M2520 2699 c-22 -18 -22 -19 -3 -10 12 6 25 16 28 21 9 15 3 12 -25
-11z"/>
<path d="M5550 2678 c0 -24 -3 -60 -6 -80 -6 -37 -6 -38 25 -38 18 0 31 -5 31
-12 0 -7 5 -5 11 4 5 10 9 24 8 30 -2 7 1 27 5 44 4 21 2 43 -8 65 -9 22 -15
28 -15 15 -1 -17 -2 -17 -26 -2 l-25 16 0 -42z"/>
<path d="M2595 2690 c-3 -6 1 -7 9 -4 18 7 21 14 7 14 -6 0 -13 -4 -16 -10z"/>
<path d="M2354 2661 l27 -28 -27 -22 c-36 -29 -22 -26 32 5 47 28 54 35 27 28
-10 -3 -30 6 -45 21 -37 34 -48 32 -14 -4z"/>
<path d="M2510 2645 c-14 -8 -20 -14 -14 -15 5 0 19 7 30 15 24 18 16 19 -16
0z"/>
<path d="M5502 2601 c-11 -7 -11 -9 2 -14 10 -4 16 -1 16 8 0 17 -1 17 -18 6z"/>
<path d="M2404 2585 c-18 -14 -18 -14 7 -15 14 0 35 -9 48 -21 12 -12 25 -19
27 -16 3 3 -6 14 -20 25 -15 11 -26 25 -26 31 0 15 -12 14 -36 -4z"/>
<path d="M2360 2560 c-9 -6 -10 -10 -3 -10 6 0 15 5 18 10 8 12 4 12 -15 0z"/>
<path d="M2220 2531 c-25 -15 -46 -35 -48 -44 -5 -24 15 -21 21 3 3 10 21 27
41 37 20 9 36 20 36 25 0 10 3 11 -50 -21z"/>
<path d="M2239 2493 c-13 -15 -12 -15 9 -4 23 12 28 21 13 21 -5 0 -15 -7 -22
-17z"/>
<path d="M2517 2490 c9 -11 19 -17 21 -15 6 6 -18 35 -29 35 -5 0 -1 -9 8 -20z"/>
<path d="M5610 2496 c0 -9 5 -16 10 -16 6 0 10 4 10 9 0 6 -4 13 -10 16 -5 3
-10 -1 -10 -9z"/>
<path d="M2565 2440 c10 -11 23 -20 28 -20 6 0 2 9 -8 20 -10 11 -23 20 -28
20 -6 0 -2 -9 8 -20z"/>
<path d="M2680 2330 c100 -95 143 -120 202 -119 82 1 88 18 7 18 -86 1 -87 2
-202 111 -38 36 -74 66 -80 68 -7 2 26 -33 73 -78z"/>
<path d="M3961 2291 c-10 -18 -9 -21 9 -21 22 0 25 7 11 29 -7 11 -11 9 -20
-8z"/>
<path d="M4161 2276 c2 -2 24 -6 49 -9 30 -4 38 -3 25 3 -19 8 -83 14 -74 6z"/>
<path d="M2998 2233 c7 -3 16 -2 19 1 4 3 -2 6 -13 5 -11 0 -14 -3 -6 -6z"/>
<path d="M3698 2233 c6 -2 18 -2 25 0 6 3 1 5 -13 5 -14 0 -19 -2 -12 -5z"/>
<path d="M4298 2215 c2 -14 6 -25 8 -25 2 0 4 11 4 25 0 14 -4 25 -9 25 -4 0
-6 -11 -3 -25z"/>
<path d="M3570 2210 c-24 -8 -24 -8 5 -9 17 0 37 4 45 9 12 8 11 10 -5 9 -11
-1 -31 -5 -45 -9z"/>
<path d="M3445 2180 c-11 -4 -38 -16 -60 -24 l-40 -16 35 6 c46 9 131 43 105
43 -11 0 -29 -4 -40 -9z"/>
<path d="M3118 2130 c-4 -14 -8 -35 -8 -47 0 -12 -8 -27 -17 -32 -31 -18 0
-11 42 9 30 15 35 19 18 20 -18 0 -22 7 -25 38 -3 33 -4 35 -10 12z"/>
<path d="M3280 2125 c-16 -9 -19 -14 -9 -15 8 0 24 7 35 15 24 18 7 19 -26 0z"/>
<path d="M3200 2094 l-25 -15 25 7 c14 3 32 10 40 15 13 7 13 8 0 8 -8 0 -26
-6 -40 -15z"/>
<path d="M4345 2088 c-29 -16 -34 -28 -29 -63 5 -24 3 -27 -6 -15 -10 13 -11
12 -5 -5 4 -11 10 -29 13 -40 9 -37 24 -45 76 -45 67 1 95 22 111 86 19 74 20
73 -100 88 -22 3 -49 0 -60 -6z"/>
<path d="M2819 1954 c-12 -14 -11 -16 5 -13 11 2 21 10 24 17 5 17 -13 15 -29
-4z"/>
<path d="M2870 1956 c0 -8 8 -13 17 -12 10 0 19 -7 21 -16 2 -13 -3 -18 -17
-18 -12 0 -21 6 -21 13 -1 16 -39 -54 -40 -73 0 -9 6 -6 16 9 12 17 24 22 45
19 29 -4 29 -4 29 44 0 45 -2 48 -25 48 -15 0 -25 -6 -25 -14z"/>
<path d="M2822 1810 c0 -14 2 -19 5 -12 2 6 2 18 0 25 -3 6 -5 1 -5 -13z"/>
<path d="M0 1161 l0 -611 24 0 c13 0 29 -6 35 -14 6 -7 37 -16 69 -20 46 -5
63 -12 85 -35 15 -16 27 -36 27 -45 0 -8 5 -18 10 -21 12 -8 -26 -45 -45 -45
-14 0 -50 -38 -43 -45 3 -3 -1 -38 -8 -78 -6 -39 -12 -111 -11 -159 l1 -88
128 0 128 0 2 73 c4 174 -2 277 -18 302 -10 16 -14 34 -9 53 5 25 12 31 43 36
20 3 52 6 70 6 20 0 31 4 27 10 -4 6 5 10 20 10 l27 0 -34 35 c-34 36 -40 57
-25 88 13 29 107 21 107 -9 0 -21 6 -18 58 34 27 26 57 54 68 62 22 18 109 17
130 -1 8 -7 17 -9 21 -5 3 3 1 6 -7 6 -10 0 -10 3 0 15 8 10 11 32 8 60 -3 25
-2 45 3 45 5 0 9 8 9 18 0 14 -2 15 -10 2 -8 -12 -10 -10 -10 10 0 14 -7 35
-15 47 -11 15 -12 24 -4 29 15 9 -8 24 -37 24 -11 0 -29 9 -39 20 -23 25 -31
25 -38 0 -6 -24 -34 -26 -84 -5 -45 19 -63 19 -91 -1 l-22 -15 26 -35 c15 -19
35 -34 45 -34 14 0 19 -7 19 -25 0 -24 -16 -31 -59 -26 -7 2 -37 -22 -66 -53
-46 -48 -58 -55 -87 -52 -18 1 -48 12 -67 23 -43 27 -103 38 -130 24 -36 -20
-65 -13 -95 24 -16 19 -37 35 -45 35 -13 0 -13 2 -2 9 11 7 11 10 -1 17 -9 5
-21 26 -27 47 -7 20 -21 42 -32 47 -25 14 -24 31 2 64 14 18 28 26 41 23 13
-4 31 8 61 40 l42 44 18 -22 c10 -12 16 -28 13 -34 -6 -16 19 -90 31 -90 4 -1
17 -6 28 -11 11 -6 40 -14 64 -18 24 -4 53 -13 64 -21 26 -18 54 -19 60 -2 2
6 2 36 -1 65 -5 50 -3 55 27 82 17 16 46 31 64 33 72 9 86 29 33 51 -28 11
-34 20 -40 54 -4 26 -15 48 -31 60 -14 11 -25 23 -25 27 0 4 -11 18 -24 30
-21 19 -23 29 -19 69 7 56 -6 60 -49 16 -24 -25 -32 -29 -48 -20 -22 12 -26
36 -7 43 9 4 9 6 0 6 -7 1 -13 10 -13 20 0 30 -54 83 -88 87 -44 5 -62 -14
-69 -73 -5 -47 -12 -57 -34 -55 -6 1 -8 -9 -10 -62 -1 -36 -5 -44 -31 -64 -27
-21 -58 1 -57 41 0 18 -3 46 -6 63 -5 24 -3 33 11 38 11 4 21 1 27 -9 17 -31
35 1 31 53 -7 78 -7 125 1 155 6 21 4 27 -9 27 -11 0 -16 9 -16 33 -1 38 -16
61 -48 71 l-22 7 0 -610z m880 -421 c0 -5 -4 -10 -10 -10 -5 0 -10 5 -10 10 0
6 5 10 10 10 6 0 10 -4 10 -10z"/>
<path d="M4851 1729 c-36 -14 -46 -35 -43 -82 5 -62 28 -87 82 -90 42 -2 44
-1 53 33 17 68 15 104 -7 127 -22 24 -46 28 -85 12z"/>
<path d="M1505 1682 c-33 -6 -56 -33 -49 -56 13 -44 34 -56 94 -56 53 0 61 -3
96 -38 22 -20 55 -50 75 -64 l35 -28 12 48 c7 26 10 74 7 107 -2 33 -4 66 -4
74 -1 8 -4 11 -8 8 -3 -4 -12 -2 -20 4 -9 9 -17 8 -27 0 -7 -6 -26 -9 -42 -6
-38 7 -144 11 -169 7z"/>
<path d="M2794 1668 c-4 -13 -10 -25 -14 -28 -11 -8 -22 -50 -13 -50 19 1 30
18 37 58 7 45 2 56 -10 20z"/>
<path d="M1938 1523 c-18 -9 -28 -22 -28 -36 0 -31 11 -42 45 -44 16 -2 35 -9
41 -18 6 -8 16 -15 22 -15 14 0 34 35 25 44 -3 3 8 6 26 6 19 0 34 6 38 15 8
23 -2 29 -51 30 -27 0 -49 6 -60 18 -20 20 -22 20 -58 0z"/>
<path d="M1417 1262 c-49 -6 -56 -68 -15 -121 24 -31 23 -33 -12 -69 -30 -32
-39 -77 -24 -116 8 -22 53 -20 61 2 3 9 18 33 32 52 42 56 48 73 38 97 -7 16
-6 29 7 47 17 28 22 66 7 66 -5 0 -12 9 -16 19 -6 20 -33 28 -78 23z"/>
<path d="M1944 1253 c-10 -7 -16 -14 -13 -16 2 -2 42 -11 89 -20 94 -19 116
-12 99 31 -8 21 -14 23 -83 21 -41 -2 -82 -9 -92 -16z"/>
<path d="M1519 890 c-4 -25 -3 -30 6 -30 6 0 11 9 11 20 1 20 -15 29 -17 10z"/>
<path d="M890 879 c0 -5 5 -7 10 -4 6 3 10 8 10 11 0 2 -4 4 -10 4 -5 0 -10
-5 -10 -11z"/>
<path d="M1600 520 c0 -5 -6 -10 -14 -10 -8 0 -18 -6 -22 -12 -4 -7 -4 -10 1
-6 4 4 17 3 28 -3 15 -9 18 -8 12 2 -6 9 -4 11 8 6 15 -6 31 15 20 27 -10 10
-33 7 -33 -4z"/>
<path d="M1200 500 c0 -5 8 -10 18 -10 12 0 14 -2 4 -8 -7 -5 -15 -26 -19 -48
-3 -21 -14 -51 -24 -66 -24 -33 -24 -43 -1 -45 9 0 112 -6 227 -12 116 -6 224
-15 242 -20 44 -13 63 4 66 56 2 58 -25 92 -88 110 -28 8 -62 18 -77 23 -16 4
-28 5 -28 0 0 -4 -21 -13 -47 -20 -27 -7 -56 -14 -65 -17 -11 -2 -31 10 -53
31 -33 33 -40 36 -95 36 -33 0 -60 -4 -60 -10z"/>
<path d="M695 222 c-30 -32 -37 -74 -29 -156 l7 -66 53 0 53 0 6 53 c3 28 5
81 3 117 -3 64 -3 64 -36 71 -28 6 -37 2 -57 -19z"/>
<path d="M1280 165 c0 -14 4 -25 10 -25 5 0 17 -16 25 -36 24 -58 47 -72 120
-73 47 0 64 3 62 12 -1 6 6 11 16 11 38 -3 12 30 -28 34 -41 5 -125 43 -125
58 0 16 -19 30 -52 38 -25 6 -28 4 -28 -19z"/>
</g>
</svg>
